<svg width="741" height="476" viewBox="0 0 741 476" fill="none" xmlns="http://www.w3.org/2000/svg">
<g clip-path="url(#clip0_725_1897)">
<path fill-rule="evenodd" clip-rule="evenodd" d="M64 68.1875L628.004 68.1875V558H692.004V68.1875V4.18752L628.004 4.18751L64 4.1875H1.21295e-05L1.07308e-05 68.1875L1.41157e-06 558H64L64 68.1875Z" fill="#0A29CD"/>
<path fill-rule="evenodd" clip-rule="evenodd" d="M1255.94 556.953C1312.68 505.101 1348.27 430.493 1348.27 347.572C1348.27 190.96 1221.31 64 1064.7 64C908.089 64 781.129 190.96 781.129 347.572C781.129 430.493 816.72 505.101 873.458 556.953H787.249C743.234 498.72 717.129 426.195 717.129 347.572C717.129 155.613 872.742 0 1064.7 0C1256.66 0 1412.27 155.613 1412.27 347.572C1412.27 426.195 1386.17 498.72 1342.15 556.953H1255.94Z" fill="#0A29CD"/>
<path fill-rule="evenodd" clip-rule="evenodd" d="M509.844 558H600.353L70.3798 28.0264L25.125 73.2812L509.844 558Z" fill="#0A29CD"/>
</g>
<defs>
<clipPath id="clip0_725_1897">
<rect width="992" height="476" fill="white"/>
</clipPath>
</defs>
</svg>
