<svg width="142" height="41" viewBox="0 0 142 41" fill="none" xmlns="http://www.w3.org/2000/svg">
<path d="M15.4016 7.31079V18.4652H5.16766V7.31079H0.305664V33.9214H5.16766V23.1412H15.4016V33.9214H20.2636V7.31079H15.4016Z" fill="#33475B"/>
<path d="M37.0954 25.5361C37.1299 26.0948 37.0552 26.6552 36.8761 27.1823C36.697 27.7095 36.4171 28.1923 36.0539 28.6009C35.6906 29.0095 35.2517 29.3352 34.7643 29.5579C34.2769 29.7806 33.7513 29.8954 33.2201 29.8954C32.6889 29.8954 32.1633 29.7806 31.6759 29.5579C31.1885 29.3352 30.7496 29.0095 30.3864 28.6009C30.0231 28.1923 29.7433 27.7095 29.5642 27.1823C29.385 26.6552 29.3104 26.0948 29.3449 25.5361V13.9634H24.9043V25.5361C24.9994 27.7936 25.9171 29.9254 27.4662 31.4875C29.0153 33.0495 31.0764 33.9214 33.2201 33.9214C35.3639 33.9214 37.425 33.0495 38.9741 31.4875C40.5232 29.9254 41.4409 27.7936 41.536 25.5361V13.9634H37.0954V25.5361Z" fill="#33475B"/>
<path d="M70.805 15.0722C70.767 14.6423 70.8273 14.2094 70.9814 13.8059C71.1355 13.4024 71.3794 13.0387 71.6949 12.7418C72.0104 12.445 72.3894 12.2227 72.8035 12.0916C73.2177 11.9605 73.6563 11.924 74.0866 11.9847C75.7823 12.1923 77.3417 13.0119 78.4679 14.2875L81.5262 10.7224C80.6467 9.68295 79.5545 8.84118 78.3222 8.25297C77.0899 7.66477 75.7456 7.34359 74.3787 7.31079C69.2243 7.31079 65.6677 10.2448 65.6677 15.1234C65.6677 24.1641 76.8013 21.2984 76.8013 26.3476C76.7356 27.1604 76.359 27.9174 75.7487 28.463C75.1383 29.0087 74.3407 29.3016 73.5196 29.2815C70.7706 29.2815 69.8772 27.951 68.6057 26.5352L65.1694 29.9468C66.1037 31.187 67.3178 32.1925 68.7142 32.8827C70.1106 33.5729 71.6505 33.9286 73.2104 33.9213C78.004 33.9213 81.8011 30.9532 81.8011 26.2964C81.8011 16.2663 70.6675 19.4732 70.6675 15.0381" fill="#33475B"/>
<path d="M140.012 29.5987C137.222 29.5987 136.443 28.4108 136.443 26.586V18.4945H140.757V14.4316H136.46V8.97412L131.696 11.1089V27.5845C131.696 31.8024 134.624 33.9199 138.626 33.9199C139.258 33.9312 139.89 33.8851 140.514 33.7822L141.675 29.5299C141.155 29.5299 140.549 29.5299 140.029 29.5299" fill="#33475B"/>
<path d="M55.4563 13.9505C54.4291 13.904 53.4037 14.0736 52.4475 14.4482C51.4914 14.8228 50.6263 15.3939 49.9093 16.1238V7.31079H45.2264V23.6533C45.1543 24.9462 45.3434 26.2404 45.7825 27.46C46.2216 28.6797 46.902 29.8004 47.7838 30.7565C48.6656 31.7126 49.7311 32.4849 50.918 33.0282C52.1049 33.5716 53.3892 33.8751 54.696 33.9209C57.4194 33.9487 60.0445 32.9142 62.0039 31.041C63.9634 29.1678 65.0999 26.6063 65.1679 23.91C65.1908 22.62 64.9568 21.3382 64.4794 20.1378C64.0019 18.9374 63.2904 17.8419 62.3853 16.9138C61.4803 15.9858 60.3995 15.2434 59.2047 14.729C58.0098 14.2147 56.7244 13.9385 55.4218 13.9163M55.4218 29.3176C54.3691 29.3176 53.3401 29.0085 52.4648 28.4293C51.5896 27.8502 50.9074 27.027 50.5046 26.0639C50.1017 25.1008 49.9963 24.0411 50.2017 23.0187C50.4071 21.9962 50.914 21.0571 51.6583 20.32C52.4026 19.5829 53.351 19.0809 54.3834 18.8775C55.4159 18.6741 56.486 18.7785 57.4585 19.1774C58.4311 19.5764 59.2623 20.2519 59.8471 21.1187C60.432 21.9854 60.7441 23.0045 60.7441 24.0469C60.7441 25.4448 60.1834 26.7854 59.1852 27.7738C58.1871 28.7623 56.8333 29.3176 55.4218 29.3176Z" fill="#33475B"/>
<path d="M105.083 23.9577C105.011 21.2644 103.873 18.7073 101.914 16.8377C99.9545 14.9682 97.332 13.936 94.6115 13.9639C93.3048 14.0098 92.0204 14.3132 90.8335 14.8566C89.6467 15.3999 88.5811 16.1723 87.6993 17.1284C86.8175 18.0845 86.1372 19.2051 85.698 20.4248C85.2589 21.6444 85.0698 22.9386 85.1419 24.2315V40.574H89.8249V31.7781C90.533 32.5111 91.3912 33.0857 92.3419 33.4635C93.2926 33.8413 94.3139 34.0135 95.3373 33.9686C97.9696 33.9191 100.475 32.837 102.302 30.96C104.129 29.083 105.13 26.5646 105.083 23.9577M100.625 23.9577C100.615 24.9949 100.296 26.0061 99.7077 26.8646C99.1197 27.723 98.2889 28.3906 97.3195 28.7836C96.3501 29.1766 95.2852 29.2777 94.2581 29.074C93.231 28.8704 92.2874 28.3711 91.5456 27.6388C90.8037 26.9065 90.2965 25.9737 90.0876 24.9572C89.8787 23.9408 89.9772 22.8858 90.371 21.9246C90.7648 20.9634 91.4362 20.1386 92.3012 19.5535C93.1661 18.9685 94.1862 18.6492 95.2336 18.6357C95.9325 18.6357 96.6246 18.772 97.2704 19.0369C97.9161 19.3018 98.5028 19.69 98.9971 20.1794C99.4913 20.6688 99.8833 21.2499 100.151 21.8893C100.418 22.5288 100.556 23.2142 100.556 23.9064" fill="#33475B"/>
<path d="M119.787 13.772V9.04735C120.388 8.75198 120.896 8.28522 121.252 7.70113C121.609 7.11704 121.799 6.43952 121.802 5.74704V5.64282C121.798 4.6768 121.428 3.75164 120.773 3.06855C120.118 2.38546 119.231 1.99969 118.305 1.99512H118.205C117.279 1.99969 116.393 2.38546 115.738 3.06855C115.083 3.75164 114.713 4.6768 114.709 5.64282V5.74704C114.711 6.43952 114.902 7.11704 115.259 7.70113C115.615 8.28522 116.123 8.75198 116.723 9.04735V13.772C114.999 14.0582 113.375 14.8064 112.011 15.9432L99.5396 5.81652C99.627 5.4825 99.6717 5.13792 99.6728 4.79169C99.676 3.97899 99.4486 3.18347 99.0192 2.50539C98.5897 1.8273 97.9775 1.29699 97.2596 0.981282C96.5417 0.665568 95.7503 0.578578 94.9851 0.731278C94.2199 0.883977 93.5152 1.26953 92.9597 1.83935C92.4042 2.40918 92.0228 3.13777 91.8636 3.93333C91.7043 4.72889 91.7744 5.5558 92.065 6.30989C92.3555 7.06397 92.8535 7.71147 93.4962 8.1708C94.1389 8.63012 94.8976 8.88072 95.6766 8.89102C96.3602 8.89451 97.0325 8.7087 97.6248 8.35254L109.947 18.375C108.835 20.1107 108.254 22.1572 108.281 24.2443C108.308 26.3314 108.941 28.361 110.096 30.0651L106.367 33.9559C106.064 33.859 105.75 33.8064 105.434 33.7996C104.791 33.7996 104.163 33.9987 103.628 34.3717C103.094 34.7446 102.678 35.2747 102.433 35.8946C102.187 36.5145 102.124 37.1965 102.251 37.854C102.377 38.5115 102.688 39.115 103.144 39.588C103.6 40.061 104.18 40.3822 104.811 40.5109C105.442 40.6397 106.095 40.5701 106.688 40.3111C107.281 40.052 107.787 39.6152 108.142 39.0559C108.497 38.4966 108.684 37.84 108.681 37.1694C108.674 36.8452 108.624 36.5236 108.531 36.214L112.211 32.2711C113.417 33.2582 114.824 33.9427 116.324 34.2716C117.824 34.6006 119.376 34.5652 120.86 34.1681C122.345 33.7711 123.722 33.023 124.885 31.9819C126.048 30.9407 126.966 29.6344 127.568 28.1639C128.17 26.6935 128.439 25.0983 128.355 23.5019C128.271 21.9055 127.836 20.3507 127.084 18.9577C126.332 17.5647 125.282 16.3709 124.017 15.4686C122.752 14.5664 121.305 13.9799 119.787 13.7546M118.255 29.3876C117.244 29.3911 116.254 29.0812 115.411 28.4974C114.568 27.9135 113.91 27.0819 113.521 26.1078C113.131 25.1337 113.028 24.0609 113.223 23.0254C113.418 21.9898 113.904 21.038 114.618 20.2905C115.332 19.543 116.243 19.0334 117.235 18.8262C118.227 18.619 119.256 18.7236 120.191 19.1267C121.126 19.5298 121.925 20.2133 122.488 21.0906C123.05 21.9679 123.351 22.9996 123.351 24.055C123.351 25.4663 122.814 26.8201 121.859 27.8196C120.904 28.8192 119.608 29.383 118.255 29.3876" fill="#FF7A59"/>
</svg>
